<?xml version="1.0" encoding="UTF-8" standalone="no"?>
<!-- Created with Inkscape (http://www.inkscape.org/) -->

<svg
   xmlns:dc="http://purl.org/dc/elements/1.1/"
   xmlns:cc="http://creativecommons.org/ns#"
   xmlns:rdf="http://www.w3.org/1999/02/22-rdf-syntax-ns#"
   xmlns:svg="http://www.w3.org/2000/svg"
   xmlns="http://www.w3.org/2000/svg"
   xmlns:sodipodi="http://sodipodi.sourceforge.net/DTD/sodipodi-0.dtd"
   xmlns:inkscape="http://www.inkscape.org/namespaces/inkscape"
   id="svg3390"
   version="1.1"
   inkscape:version="0.91 r13725"
   width="219"
   height="230"
   viewBox="0 0 219 230"
   sodipodi:docname="apple.svg">
  <metadata
     id="metadata3396">
    <rdf:RDF>
      <cc:Work
         rdf:about="">
        <dc:format>image/svg+xml</dc:format>
        <dc:type
           rdf:resource="http://purl.org/dc/dcmitype/StillImage" />
        <dc:title></dc:title>
      </cc:Work>
    </rdf:RDF>
  </metadata>
  <defs
     id="defs3394" />
  <sodipodi:namedview
     pagecolor="#ffffff"
     bordercolor="#666666"
     borderopacity="1"
     objecttolerance="10"
     gridtolerance="10"
     guidetolerance="10"
     inkscape:pageopacity="0"
     inkscape:pageshadow="2"
     inkscape:window-width="640"
     inkscape:window-height="480"
     id="namedview3392"
     showgrid="false"
     inkscape:zoom="2.9022122"
     inkscape:cx="47.359725"
     inkscape:cy="94.221925"
     inkscape:current-layer="svg3390" />
  <path
     style="fill:#ff6c0c;fill-opacity:1"
     d="m 119.5,217.55063 c -2.75,-0.76662 -7.25,-2.40168 -10,-3.63347 -4.04461,-1.81168 -7.15565,-2.29206 -16.281566,-2.51404 -14.96345,-0.36399 -20.873556,-1.66998 -32.201834,-7.11584 -8.255891,-3.96886 -10.715206,-5.80339 -19,-14.17312 C 23.683608,171.59322 14.074171,148.54219 14.021642,122.9601 13.99668,110.8032 15.634695,103.34153 20.214786,94.748399 22.981753,89.557037 32.065513,80 34.232824,80 c 1.8062,0 0.55279,4.851645 -1.827986,7.075686 -13.881484,12.967624 -13.797234,41.508994 0.20409,69.139274 4.964299,10.07016 6.979812,11.16878 11.187022,16.25181 7.402493,9.47811 21.815435,19.05162 32.332983,21.47654 2.404087,0.55429 10.117018,1.0188 17.139848,1.03224 11.459679,0.0219 13.510149,0.30545 19.999999,2.76532 5.5645,2.10912 8.98287,2.74231 14.83091,2.74714 7.0588,0.006 8.27823,-0.33057 17.13322,-4.72642 C 187.96823,174.54668 206.42922,110.09737 179.2693,76.936871 170.08813,65.727253 162.80272,62.587431 146,62.59867 c -14.6143,0.0098 -31.65107,3.260399 -49.782509,9.498527 -4.902374,1.686664 -5.842631,1.759871 -6.709426,0.52238 C 88.953629,71.828031 85.619703,67.070947 82.099339,62.048281 73.676812,50.03147 62.780807,39.917694 52.910688,34.955095 l -7.702174,-3.872578 1.992484,-7.933939 1.992485,-7.93394 3.653258,0.980651 c 6.383524,1.713543 16.091757,7.782058 23.245451,14.530491 8.622092,8.133645 15.266684,18.65369 18.96836,30.031642 1.845125,5.671418 3.300113,8.631953 4.141869,8.427665 0.713668,-0.173203 6.099319,-2.073343 11.968119,-4.222535 19.59296,-7.175072 25.72481,-8.427625 41.34738,-8.446034 13.83139,-0.0163 14.1065,0.02707 20.67547,3.259456 13.27111,6.530291 26.18266,24.108698 30.27956,41.224026 8.52304,35.60614 -6.91441,78.48931 -36.54313,101.51192 -15.25198,11.85136 -35.65599,18.32092 -47.42982,15.03871 z M 49,76.170313 c 0,-1.802267 6.766006,-2.48335 14.339762,-1.443476 L 70.5,75.709935 62.875,75.854968 C 58.68125,75.934735 53.84375,76.28125 52.125,76.625 50.168657,77.016269 49,76.846229 49,76.170313 Z M 110.20153,56.91858 c 10.55431,-1.117422 14.9834,-2.431575 24.29847,-7.209578 6.47295,-3.320186 10.2137,-6.30867 19.59724,-15.656231 6.37848,-6.354024 12.12673,-12.555774 12.77389,-13.781666 1.12229,-2.125927 0.70203,-2.468229 -9.09724,-7.409703 -9.11624,-4.5970418 -11.14904,-5.2337393 -18.04065,-5.650561 -9.78571,-0.5918634 -15.03829,1.2521014 -21.24413,7.45794 -4.74619,4.746199 -10.73844,14.293532 -14.50569,23.11165 -3.23781,7.578851 -3.54399,5.742116 -0.53635,-3.2175 C 111.44264,10.744538 122.08475,0.6167701 139,0.72828929 c 7.55781,0.0498273 18.0226,3.09176051 23.91427,6.95146691 1.32785,0.8698906 5.76186,2.8020838 9.85336,4.2937628 l 7.43908,2.712143 -7.58396,9.039099 C 152.01793,48.28305 133.98437,58.189123 110.5,57.849621 l -8,-0.115652 z M 99.030626,47.5 c 0,-0.55 0.436218,-1.675 0.969374,-2.5 0.53316,-0.825 0.96937,-1.05 0.96937,-0.5 0,0.55 -0.43621,1.675 -0.96937,2.5 -0.533156,0.825 -0.969374,1.05 -0.969374,0.5 z"
     id="path3402"
     inkscape:connector-curvature="0"
     sodipodi:nodetypes="sssssssssccssscssssssscccsssssssssssscssssssssssssssscsscssssss" />
</svg>
